<svg width="619" height="171" viewBox="0 0 619 171" fill="none" xmlns="http://www.w3.org/2000/svg">
<path d="M211 38.9091H242.455L264.091 91.6364H265.182L286.818 38.9091H318.273V132H293.545V78.1818H292.818L272.091 131.273H257.182L236.455 77.8182H235.727V132H211V38.9091ZM375.886 101.455V62.1818H400.977V132H377.159V118.727H376.432C374.917 123.182 372.265 126.667 368.477 129.182C364.689 131.667 360.189 132.909 354.977 132.909C350.098 132.909 345.826 131.788 342.159 129.545C338.523 127.303 335.689 124.212 333.659 120.273C331.659 116.333 330.644 111.818 330.614 106.727V62.1818H355.705V101.455C355.735 104.909 356.614 107.621 358.341 109.591C360.098 111.561 362.553 112.545 365.705 112.545C367.795 112.545 369.598 112.106 371.114 111.227C372.659 110.318 373.841 109.045 374.659 107.409C375.508 105.742 375.917 103.758 375.886 101.455ZM455.375 62.1818V80.3636H409.375V62.1818H455.375ZM418.284 45.4545H443.375V109.545C443.375 110.515 443.542 111.333 443.875 112C444.208 112.636 444.723 113.121 445.42 113.455C446.117 113.758 447.011 113.909 448.102 113.909C448.86 113.909 449.739 113.818 450.739 113.636C451.769 113.455 452.527 113.303 453.011 113.182L456.648 130.818C455.527 131.152 453.92 131.561 451.83 132.045C449.769 132.53 447.314 132.848 444.466 133C438.708 133.303 433.875 132.712 429.966 131.227C426.057 129.712 423.117 127.333 421.148 124.091C419.178 120.848 418.223 116.788 418.284 111.909V45.4545ZM498.5 133.273C490.924 133.273 484.439 131.773 479.045 128.773C473.652 125.742 469.515 121.53 466.636 116.136C463.758 110.712 462.318 104.424 462.318 97.2727C462.318 90.1212 463.758 83.8485 466.636 78.4545C469.515 73.0303 473.652 68.8182 479.045 65.8182C484.439 62.7879 490.924 61.2727 498.5 61.2727C505.348 61.2727 511.273 62.5152 516.273 65C521.303 67.4545 525.197 70.9394 527.955 75.4545C530.712 79.9394 532.106 85.2121 532.136 91.2727H508.864C508.53 87.6061 507.47 84.8182 505.682 82.9091C503.924 80.9697 501.652 80 498.864 80C496.682 80 494.773 80.6364 493.136 81.9091C491.5 83.1515 490.227 85.0455 489.318 87.5909C488.409 90.1061 487.955 93.2727 487.955 97.0909C487.955 100.909 488.409 104.091 489.318 106.636C490.227 109.152 491.5 111.045 493.136 112.318C494.773 113.561 496.682 114.182 498.864 114.182C500.712 114.182 502.348 113.758 503.773 112.909C505.197 112.03 506.348 110.758 507.227 109.091C508.136 107.394 508.682 105.333 508.864 102.909H532.136C532.045 109.061 530.636 114.424 527.909 119C525.182 123.545 521.318 127.061 516.318 129.545C511.348 132.03 505.409 133.273 498.5 133.273ZM567.58 92.7273V132H542.489V38.9091H566.67V75.4545H567.398C568.973 71 571.595 67.5303 575.261 65.0455C578.928 62.5303 583.337 61.2727 588.489 61.2727C593.428 61.2727 597.716 62.3939 601.352 64.6364C605.019 66.8788 607.852 69.9697 609.852 73.9091C611.883 77.8485 612.883 82.3636 612.852 87.4545V132H587.761V92.7273C587.792 89.2727 586.928 86.5606 585.17 84.5909C583.443 82.6212 580.973 81.6364 577.761 81.6364C575.731 81.6364 573.943 82.0909 572.398 83C570.883 83.8788 569.701 85.1515 568.852 86.8182C568.034 88.4545 567.61 90.4242 567.58 92.7273Z" fill="white"/>
<rect x="4" y="4" width="171" height="163" rx="38" fill="#B8E6FE" stroke="black" stroke-width="8"/>
<rect x="22" y="21" width="100" height="100" rx="16" fill="#EFEFEF"/>
<rect x="59" y="50" width="100" height="100" rx="16" fill="white"/>
</svg>
